<svg xmlns="http://www.w3.org/2000/svg" version="1.1" xmlns:xlink="http://www.w3.org/1999/xlink" xmlns:svgjs="http://svgjs.dev/svgjs" width="1000" height="348" viewBox="0 0 1000 348"><g transform="matrix(1,0,0,1,-0.6056348047761162,-0.5560524644896248)"><svg viewBox="0 0 396 138" data-background-color="#ffffff" preserveAspectRatio="xMidYMid meet" height="348" width="1000" xmlns="http://www.w3.org/2000/svg" xmlns:xlink="http://www.w3.org/1999/xlink"><g id="tight-bounds" transform="matrix(1,0,0,1,0.24008861730862918,0.22050356350450784)"><svg viewBox="0 0 395.52 137.55887814671811" height="137.55887814671811" width="395.52"><g><svg viewBox="0 0 395.52 137.55887814671811" height="137.55887814671811" width="395.52"><g><svg viewBox="0 0 395.52 137.55887814671811" height="137.55887814671811" width="395.52"><g id="textblocktransform"><svg viewBox="0 0 395.52 137.55887814671811" height="137.55887814671811" width="395.52" id="textblock"><g><svg viewBox="0 0 395.52 137.55887814671811" height="137.55887814671811" width="395.52"><path d="M394.594 29.504C392.735 15.225 387.435 11.256 387.435 11.256 371.165-3.451 350.86-0.281 332.619 1.832 300.414 1.918 268.339 5.059 236.208 6.744 168.767 7.001 100.749 2.774 33.643 13.198 27.339 16.396-6.54 13.826 1.121 31.331 3.129 38.613 10.456 46.695 10.232 53.378 11.236 54.548 12.631 51.864 13.226 53.549 15.309 58.089 18.711 55.948 21.501 58.632 17.614 65.8 20.403 71.768 23.062 78.022 18.377 79.65 12.371 78.879 9.675 84.276 9.396 88.189 7.89 87.446 6.235 87.275 5.026 87.161 2.59 87.589 2.999 88.817 4.394 93.015-1.594 95.442 2.162 99.554-0.422 104.009 3.948 107.865 3.353 112.691 3.278 113.662 3.687 114.49 4.338 114.718 7.22 115.946 3.018 118.345 3.464 120.944 33.029 138.706 65.104 126.427 95.394 134.594 103.259 128.883 97.346 136.622 100.489 135.422 102.943 134.023 104.728 139.82 107.499 136.536 107.927 135.593 107.276 133.366 108.8 133.794 109.6 134.023 110.307 133.966 110.418 132.652 110.586 130.682 109.117 131.91 108.726 130.882 112.947 125.684 111.906 138.049 115.866 137.535 115.68 136.022 114.528 133.851 116.889 134.137 119.232 131.967 119.306 130.168 121.389 135.051 121.463 136.108 121.835 136.85 122.43 137.364 128.938 132.052 135.409 139.249 142.233 136.85 146.417 134.223 150.433 138.278 154.672 137.278 156.16 136.479 157.666 135.051 159.098 137.45 176.632 137.964 195.319 135.822 211.943 137.535 256.364 134.337 303.836 138.849 350.674 134.623 361.719 132.995 373.192 130.682 383.958 128.825 383.958 128.825 392.679 123.742 392.679 100.897S394.538 80.907 394.817 62.716C395.096 44.525 396.398 43.782 394.538 29.504Z" opacity="1" fill="#a437db" data-fill-palette-color="tertiary"></path><g transform="matrix(1,0,0,1,55.76832,26.230666666666668)"><svg width="283.98335999999995" viewBox="1.7 -47 233.08 69.85" height="85.09754481338479" data-palette-color="#ffffff"><path d="M16.35 0.4Q9.7 0.4 5.7-2.13 1.7-4.65 1.7-9.85L1.7-9.85Q1.7-12.6 2.65-14.05 3.6-15.5 5.45-15.5L5.45-15.5Q6.8-15.5 7.65-14.8 8.5-14.1 8.5-13L8.5-13Q8.5-12 8.35-11.25L8.35-11.25Q8.35-11.05 8.28-10.55 8.2-10.05 8.2-9.5L8.2-9.5Q8.2-7.25 10.48-6.15 12.75-5.05 16.85-5.05L16.85-5.05Q21.1-5.05 23.5-6.58 25.9-8.1 25.9-10.85L25.9-10.85Q25.9-12.55 24.8-13.78 23.7-15 22.05-15.83 20.4-16.65 17.4-17.85L17.4-17.85Q13.55-19.35 11.13-20.7 8.7-22.05 6.98-24.38 5.25-26.7 5.25-30.15L5.25-30.15Q5.25-33.75 7.18-36.55 9.1-39.35 12.73-40.9 16.35-42.45 21.25-42.45L21.25-42.45Q24.9-42.45 27.95-41.38 31-40.3 32.83-38.1 34.65-35.9 34.65-32.7L34.65-32.7Q34.65-29.55 33.7-27.95 32.75-26.35 30.9-26.35L30.9-26.35Q29.6-26.35 28.73-27.15 27.85-27.95 27.85-29.05L27.85-29.05Q27.85-30 28-30.8L28-30.8Q28.15-32.3 28.15-32.7L28.15-32.7Q28.15-34.8 26.1-35.9 24.05-37 21-37L21-37Q16.7-37 14.43-35.43 12.15-33.85 12.15-31L12.15-31Q12.15-29.1 13.33-27.75 14.5-26.4 16.25-25.5 18-24.6 21.15-23.35L21.15-23.35Q24.95-21.8 27.25-20.55 29.55-19.3 31.18-17.15 32.8-15 32.8-11.85L32.8-11.85Q32.8-5.95 28.33-2.78 23.85 0.4 16.35 0.4L16.35 0.4ZM62.55-15.35Q63.2-15.35 63.55-14.7 63.9-14.05 63.9-13.05L63.9-13.05Q63.9-10.65 62.45-10.2L62.45-10.2Q59.45-9.15 55.85-9L55.85-9Q54.9-4.8 52.1-2.27 49.3 0.25 45.75 0.25L45.75 0.25Q42.75 0.25 40.62-1.2 38.5-2.65 37.4-5.05 36.3-7.45 36.3-10.25L36.3-10.25Q36.3-14.05 37.75-17.03 39.2-20 41.75-21.68 44.3-23.35 47.4-23.35L47.4-23.35Q51.2-23.35 53.52-20.73 55.85-18.1 56.25-14.25L56.25-14.25Q58.6-14.4 61.85-15.25L61.85-15.25Q62.25-15.35 62.55-15.35L62.55-15.35ZM46.15-5.05Q47.75-5.05 48.92-6.35 50.1-7.65 50.5-10.1L50.5-10.1Q48.95-11.15 48.12-12.85 47.3-14.55 47.3-16.45L47.3-16.45Q47.3-17.25 47.45-18.05L47.45-18.05 47.2-18.05Q45.2-18.05 43.87-16.13 42.55-14.2 42.55-10.7L42.55-10.7Q42.55-7.95 43.62-6.5 44.7-5.05 46.15-5.05L46.15-5.05ZM69.15 0.25Q64.25 0.25 61.52-2.53 58.8-5.3 58.8-9.85L58.8-9.85Q58.8-13.9 60.4-16.95 62-20 64.55-21.65 67.1-23.3 69.9-23.3L69.9-23.3Q72.65-23.3 74.17-21.68 75.7-20.05 75.7-17.5L75.7-17.5Q75.7-15.4 74.77-13.95 73.85-12.5 72.35-12.5L72.35-12.5Q71.4-12.5 70.82-12.95 70.25-13.4 70.25-14.2L70.25-14.2Q70.25-14.55 70.35-15 70.45-15.45 70.5-15.65L70.5-15.65Q70.75-16.4 70.75-17.05L70.75-17.05Q70.75-17.7 70.42-18.05 70.1-18.4 69.5-18.4L69.5-18.4Q68.35-18.4 67.35-17.38 66.35-16.35 65.75-14.6 65.15-12.85 65.15-10.75L65.15-10.75Q65.15-4.95 70.2-4.95L70.2-4.95Q72.25-4.95 74.62-6.33 77-7.7 79.3-10.45L79.3-10.45Q79.9-11.15 80.65-11.15L80.65-11.15Q81.3-11.15 81.67-10.55 82.05-9.95 82.05-8.9L82.05-8.9Q82.05-7 81.1-5.8L81.1-5.8Q78.75-2.9 75.47-1.33 72.2 0.25 69.15 0.25L69.15 0.25ZM84.54-26.6Q82.44-26.6 81.39-27.58 80.34-28.55 80.34-30.3L80.34-30.3Q80.34-32.05 81.72-33.23 83.09-34.4 85.14-34.4L85.14-34.4Q86.99-34.4 88.14-33.5 89.29-32.6 89.29-30.95L89.29-30.95Q89.29-28.95 87.99-27.78 86.69-26.6 84.54-26.6L84.54-26.6ZM84.14 0.25Q80.89 0.25 79.42-2.05 77.94-4.35 77.94-8.15L77.94-8.15Q77.94-10.4 78.52-13.93 79.09-17.45 79.99-20.5L79.99-20.5Q80.44-22.1 81.19-22.7 81.94-23.3 83.59-23.3L83.59-23.3Q86.14-23.3 86.14-21.6L86.14-21.6Q86.14-20.35 85.19-15.8L85.19-15.8Q83.99-10.3 83.99-8.35L83.99-8.35Q83.99-6.85 84.39-6.05 84.79-5.25 85.74-5.25L85.74-5.25Q86.64-5.25 87.99-6.5 89.34-7.75 91.59-10.45L91.59-10.45Q92.19-11.15 92.94-11.15L92.94-11.15Q93.59-11.15 93.97-10.55 94.34-9.95 94.34-8.9L94.34-8.9Q94.34-6.9 93.39-5.8L93.39-5.8Q88.44 0.25 84.14 0.25L84.14 0.25ZM96.44 0.25Q93.34 0.25 91.49-2 89.64-4.25 89.64-7.9L89.64-7.9Q89.64-11.9 91.49-15.48 93.34-19.05 96.42-21.23 99.49-23.4 102.94-23.4L102.94-23.4Q104.04-23.4 104.42-22.98 104.79-22.55 105.04-21.45L105.04-21.45Q106.09-21.65 107.24-21.65L107.24-21.65Q109.69-21.65 109.69-19.9L109.69-19.9Q109.69-18.85 108.94-14.9L108.94-14.9Q107.79-9.15 107.79-6.9L107.79-6.9Q107.79-6.15 108.17-5.7 108.54-5.25 109.14-5.25L109.14-5.25Q110.09-5.25 111.44-6.48 112.79-7.7 115.09-10.45L115.09-10.45Q115.69-11.15 116.44-11.15L116.44-11.15Q117.09-11.15 117.47-10.55 117.84-9.95 117.84-8.9L117.84-8.9Q117.84-6.9 116.89-5.8L116.89-5.8Q114.84-3.25 112.54-1.5 110.24 0.25 108.09 0.25L108.09 0.25Q106.44 0.25 105.07-0.88 103.69-2 102.99-3.95L102.99-3.95Q100.39 0.25 96.44 0.25L96.44 0.25ZM98.24-4.8Q99.34-4.8 100.34-6.1 101.34-7.4 101.79-9.55L101.79-9.55 103.64-18.75Q101.54-18.7 99.77-17.18 97.99-15.65 96.94-13.15 95.89-10.65 95.89-7.85L95.89-7.85Q95.89-6.3 96.52-5.55 97.14-4.8 98.24-4.8L98.24-4.8ZM132.74-11.15Q133.39-11.15 133.76-10.55 134.14-9.95 134.14-8.9L134.14-8.9Q134.14-6.9 133.19-5.8L133.19-5.8Q131.04-3.15 128.51-1.45 125.99 0.25 122.79 0.25L122.79 0.25Q118.39 0.25 116.26-3.75 114.14-7.75 114.14-14.1L114.14-14.1Q114.14-20.2 115.71-28 117.29-35.8 120.36-41.4 123.44-47 127.69-47L127.69-47Q130.09-47 131.46-44.78 132.84-42.55 132.84-38.4L132.84-38.4Q132.84-32.45 129.54-24.6 126.24-16.75 120.59-9.05L120.59-9.05Q120.94-7 121.74-6.13 122.54-5.25 123.84-5.25L123.84-5.25Q125.89-5.25 127.44-6.43 128.99-7.6 131.39-10.45L131.39-10.45Q131.99-11.15 132.74-11.15L132.74-11.15ZM126.59-42.05Q125.44-42.05 123.99-37.9 122.54-33.75 121.44-27.6 120.34-21.45 120.24-15.8L120.24-15.8Q123.79-21.65 125.89-27.53 127.99-33.4 127.99-38.25L127.99-38.25Q127.99-42.05 126.59-42.05L126.59-42.05ZM155.93 0.25Q152.48 0.25 149.71-1.45 146.93-3.15 145.33-6.38 143.73-9.6 143.73-14L143.73-14Q143.73-21.6 146.98-28.08 150.23-34.55 156.58-38.48 162.93-42.4 171.83-42.4L171.83-42.4Q174.13-42.4 176.76-42.05 179.38-41.7 181.53-41L181.53-41Q182.93-40.6 182.93-39L182.93-39Q182.93-37.7 181.96-36.55 180.98-35.4 179.68-35.4L179.68-35.4Q179.28-35.4 179.08-35.45L179.08-35.45Q176.48-36.05 174.63-36.33 172.78-36.6 170.73-36.6L170.73-36.6Q164.38-36.6 159.93-33.52 155.48-30.45 153.28-25.4 151.08-20.35 151.08-14.5L151.08-14.5Q151.08-10.25 152.76-7.93 154.43-5.6 157.13-5.6L157.13-5.6Q160.18-5.6 162.48-8.1 164.78-10.6 166.68-16.2 168.58-21.8 170.43-31.4L170.43-31.4Q170.73-32.8 171.63-33.3 172.53-33.8 174.03-33.8L174.03-33.8Q177.58-33.8 177.58-31.5L177.58-31.5Q177.58-31.1 177.43-30.5L177.43-30.5Q176.13-25.65 175.06-19.78 173.98-13.9 173.98-10.85L173.98-10.85Q173.98-8.15 174.78-6.93 175.58-5.7 177.23-5.7L177.23-5.7Q178.83-5.7 180.28-6.78 181.73-7.85 183.93-10.45L183.93-10.45Q184.53-11.15 185.28-11.15L185.28-11.15Q185.93-11.15 186.31-10.55 186.68-9.95 186.68-8.9L186.68-8.9Q186.68-6.95 185.73-5.8L185.73-5.8Q183.28-2.85 180.93-1.3 178.58 0.25 175.18 0.25L175.18 0.25Q171.68 0.25 169.53-1.78 167.38-3.8 166.83-7.5L166.83-7.5Q163.13 0.25 155.93 0.25L155.93 0.25ZM209.33-11.15Q209.98-11.15 210.36-10.55 210.73-9.95 210.73-8.9L210.73-8.9Q210.73-6.9 209.78-5.8L209.78-5.8Q207.63-3.15 205.16-1.45 202.68 0.25 199.53 0.25L199.53 0.25Q196.88 0.25 195.23-1.65L195.23-1.65Q192.38 0.2 189.28 0.25L189.28 0.25Q188.63 9.9 186.33 16.38 184.03 22.85 179.58 22.85L179.58 22.85Q176.88 22.85 175.58 20.9 174.28 18.95 174.28 15.5L174.28 15.5Q174.28 10.6 176.53 4.08 178.78-2.45 183.48-10.3L183.48-10.3Q183.48-17.6 183.38-20.45L183.38-20.45Q183.33-21.9 184.53-22.75 185.73-23.6 187.53-23.6L187.53-23.6Q188.58-23.6 189.06-23.18 189.53-22.75 189.58-21.5L189.58-21.5Q189.58-20.25 189.63-19.65L189.63-19.65Q191.23-21.65 192.78-22.53 194.33-23.4 196.08-23.4L196.08-23.4Q198.88-23.4 200.66-21.15 202.43-18.9 202.43-15.25L202.43-15.25Q202.43-12.6 201.58-10.1 200.73-7.6 199.23-5.55L199.23-5.55Q200.28-5.25 200.98-5.25L200.98-5.25Q202.63-5.25 204.13-6.45 205.63-7.65 207.98-10.45L207.98-10.45Q208.58-11.15 209.33-11.15L209.33-11.15ZM189.53-4.55Q191.33-4.95 192.86-6.53 194.38-8.1 195.28-10.43 196.18-12.75 196.18-15.3L196.18-15.3Q196.18-16.8 195.58-17.57 194.98-18.35 193.98-18.35L193.98-18.35Q192.18-18.35 189.63-14.55L189.63-14.55Q189.58-12.35 189.58-8.1L189.58-8.1Q189.58-5.8 189.53-4.55L189.53-4.55ZM179.98 17.95Q181.33 17.95 182.23 12.08 183.13 6.2 183.38-2.55L183.38-2.55Q181.23 2.45 179.98 7 178.73 11.55 178.73 14.65L178.73 14.65Q178.73 16.25 179.11 17.1 179.48 17.95 179.98 17.95L179.98 17.95ZM233.38-11.15Q234.03-11.15 234.4-10.55 234.78-9.95 234.78-8.9L234.78-8.9Q234.78-6.9 233.83-5.8L233.83-5.8Q231.68-3.15 229.2-1.45 226.73 0.25 223.58 0.25L223.58 0.25Q220.93 0.25 219.28-1.65L219.28-1.65Q216.43 0.2 213.33 0.25L213.33 0.25Q212.68 9.9 210.38 16.38 208.08 22.85 203.63 22.85L203.63 22.85Q200.93 22.85 199.63 20.9 198.33 18.95 198.33 15.5L198.33 15.5Q198.33 10.6 200.58 4.08 202.83-2.45 207.53-10.3L207.53-10.3Q207.53-17.6 207.43-20.45L207.43-20.45Q207.38-21.9 208.58-22.75 209.78-23.6 211.58-23.6L211.58-23.6Q212.63-23.6 213.1-23.18 213.58-22.75 213.63-21.5L213.63-21.5Q213.63-20.25 213.68-19.65L213.68-19.65Q215.28-21.65 216.83-22.53 218.38-23.4 220.13-23.4L220.13-23.4Q222.93-23.4 224.7-21.15 226.48-18.9 226.48-15.25L226.48-15.25Q226.48-12.6 225.63-10.1 224.78-7.6 223.28-5.55L223.28-5.55Q224.33-5.25 225.03-5.25L225.03-5.25Q226.68-5.25 228.18-6.45 229.68-7.65 232.03-10.45L232.03-10.45Q232.63-11.15 233.38-11.15L233.38-11.15ZM213.58-4.55Q215.38-4.95 216.9-6.53 218.43-8.1 219.33-10.43 220.23-12.75 220.23-15.3L220.23-15.3Q220.23-16.8 219.63-17.57 219.03-18.35 218.03-18.35L218.03-18.35Q216.23-18.35 213.68-14.55L213.68-14.55Q213.63-12.35 213.63-8.1L213.63-8.1Q213.63-5.8 213.58-4.55L213.58-4.55ZM204.03 17.95Q205.38 17.95 206.28 12.08 207.18 6.2 207.43-2.55L207.43-2.55Q205.28 2.45 204.03 7 202.78 11.55 202.78 14.65L202.78 14.65Q202.78 16.25 203.15 17.1 203.53 17.95 204.03 17.95L204.03 17.95Z" opacity="1" transform="matrix(1,0,0,1,0,0)" fill="#ffffff" class="wordmark-text-0" data-fill-palette-color="quaternary" id="text-0"></path></svg></g></svg></g></svg></g></svg></g><g></g></svg></g><defs></defs></svg><rect width="395.52" height="137.55887814671811" fill="none" stroke="none" visibility="hidden"></rect></g></svg></g></svg>